<svg id="angler" data-name="Layer 1" xmlns="http://www.w3.org/2000/svg" viewBox="0 0 796.81 596.37"><defs><style>.cls-1{fill:none;stroke:url(#gradient);stroke-miterlimit:10;stroke-width:3;}.cls-2{fill:url(#gradient);stroke:url(#gradient);stroke-miterlimit:10;stroke-width:3;}</style>
    <linearGradient id="gradient" x1="0%" y1="0%" x2="0%" y2="100%">
  <stop offset="0%" stop-color="#f3f3ff" />
  <stop offset="60%" stop-color="#5d9afd" />
  <stop offset="100%" stop-color="#00b7e7" />
</linearGradient>
</defs><path class="cls-1" d="M998.46,433.87l30.35,7.13s14.38-230,176.4-257.47,177.2,228.62,182.07,253.41c22.81-48.36,1.23-287.25-182.65-270.06S998.46,433.87,998.46,433.87Z" transform="translate(-598.38 -165.5)"/><path class="cls-1" d="M974.33,437s89.34,12.67,113.34,39.33c0,0-.23,27.56-1.34,30.67,0,0-12,5.78-12.44,8.67,0,0-13.11-40.67-41.78-40.89,0,0-7.55-2.22-4.22,7.78s11.55,54,8.67,57.44c0,0-34.67,42.33-121.34,18.78,0,0-14.89,2.89,11.11,11.33s60.89,5.56,60.89,5.56,26.22,68.44,0,122.22c0,0-.44,28.89,22.22-20.45s30.23-93.33,23.12-114.66c0,0,60-27.34,87.11-61.34s53.11-34,53.11-34,18-3.55,21.78,3.12,16,16.88-20.45,45.33-52.22,32.44-52.22,32.44,32.4-8.94,49.55-27.11c0,0,51.56,137.78-92.44,221.78,0,0-65.33,41.33-145.33,0,0,0-68.67-32-83.34-154.67,0,0,1.84,47.84,5,51.5,0,0-92.55-9.5-91-8.83,0,0-69.33,44.67-105.55,126.44,0,0-4.22,5.56-1.56-9.11s21.56-79.11,88.89-128l-4.89-4.89S667,632.56,606.11,735c0,0-7.78,11.33,3.78-18s53.33-92,126.22-113.78l3.56-.44s-.23-5.78.66-6.67c0,0-81.11-20-141.11,22,0,0-2.89-2.22,8.22-8S700.11,572.33,741.67,579c0,0,15.77-14,33.11-7.78,0,0-25.34.89-27.78,8.67,0,0,12,4.89,8.67,12s-11.78,4.89-11.78,4.89-.89,3.55,0,4.66,12.22,5.34,3.33,11.56l2.89,4.44,13.33,8.23" transform="translate(-598.38 -165.5)"/><path class="cls-1 cls-2" d="M616,612.33s33.33,10.67,33.33,40C649.33,652.33,657.67,616.67,616,612.33Z" transform="translate(-598.38 -165.5)"/><path class="cls-1 cls-2" d="M661.33,599.19S682,609.33,679.67,628C679.67,628,690.33,605,661.33,599.19Z" transform="translate(-598.38 -165.5)"/><path class="cls-1" d="M705.08,595.67s6.09,10.33,3,16.25C708.08,611.92,715.5,602.08,705.08,595.67Z" transform="translate(-598.38 -165.5)"/><path class="cls-1" d="M732.58,622.17s3.09,1.75,3.09,3.25S737.58,621.92,732.58,622.17Z" transform="translate(-598.38 -165.5)"/><path class="cls-1" d="M705.08,636s8.92,3.42,9.17,8.5C714.25,644.5,717.67,632.52,705.08,636Z" transform="translate(-598.38 -165.5)"/><path class="cls-1" d="M674.42,656.5s13.41,4.5,15.83,14.42C690.25,670.92,691.5,652.83,674.42,656.5Z" transform="translate(-598.38 -165.5)"/><path class="cls-1" d="M641.17,690.33s23.25,3,27.66,14.59C668.83,704.92,670.25,677.67,641.17,690.33Z" transform="translate(-598.38 -165.5)"/><path class="cls-1" d="M1180.56,460.11s-.45-56-50.67-75.11c0,0,30.22,53.78,18.22,80,0,0-20,8.89-21.33,12.89s-9.34-50.67-56.45-66.22c0,0,41.78,62.22,27.56,95.11,0,0-24,15.55-25.33,18.22,0,0-17.78-42.22-39.12-43.11,0,0,23.12,51.11,12,63.55,0,0-16,12.89-17.33,12s7.11,73.78-27.55,128c0,0,15.55-103.11-5.78-116,0,0-39.11,8.89-76.45-5.77" transform="translate(-598.38 -165.5)"/><path class="cls-1 cls-2" d="M965.5,500.67s10.17-30.34,27.5-29.34c0,0-32.33,35.34-13,60.84s-1.17-45.55,16.83-60.86c0,0,17.34-4.48,25.67,19.52s-9.17,63.5-37.33,62.5S965.5,500.67,965.5,500.67Z" transform="translate(-598.38 -165.5)"/><path class="cls-1" d="M932.33,557.44s4.45-60.88,17.78-72.44c0,0-9.55,59.33,3.33,76C953.44,561,932.12,560.05,932.33,557.44Z" transform="translate(-598.38 -165.5)"/><path class="cls-1" d="M913.67,532.78S893,565,901.89,593.67C901.89,593.67,879.89,557,913.67,532.78Z" transform="translate(-598.38 -165.5)"/><path class="cls-1" d="M894.85,528.11s-20.29,20.22-17.63,52.45C877.22,580.56,859.59,544.78,894.85,528.11Z" transform="translate(-598.38 -165.5)"/></svg>
