<svg id="deer" data-name="Layer 1" xmlns="http://www.w3.org/2000/svg" viewBox="0 0 352.57 344.53"><defs><style>.cls-1{fill:none;stroke:url(#gradient);stroke-miterlimit:10;stroke-width:3;}</style>
    <linearGradient id="gradient" x1="0%" y1="0%" x2="0%" y2="100%">
  <stop offset="0%" stop-color="#00bc9b" />
  <stop offset="100%" stop-color="#5eaefd" />
</linearGradient></defs><path class="cls-1" d="M7266.5,7058.17s29.33-8.34,37.67-6.67,33-13,33.33-2.67,6,14.67,3,16.34-32.67,9-20.33,32.66,40.66,125.56,10.77,137.11c0,0-12.44-18.55-24.5-25.44-11.22-6.4,17.62,13.22,21.73,27.67,0,0,51,8,56,12,0,0,3.66,68-3.34,76s-9.33,22.66-29.33,23.33l-1.67-19h10s6-5,7-8-6-48.67-4.33-53c0,0-78.78-3.52-77.44-8.78,3-11.78-5.23-23.22-6.56-22.89,0,0,8,11.56,4,23.23,0,0-37.11,17.11-111.11,24.44,0,0,8.44-31.67-.22-41.67,0,0,19,83-85.67,97.34l-31.33,37s5,5,4.66,7.66-28.33,6.34-25,1.34,33-57.34,31.67-64.67c0,0,33,5.33,38.67-52.67,0,0,.66-18.66,6.33-24.33,0,0-45,2.33-53.33-2.67,0,0,61.33-12.66,69-18.33s117-45,122.66-44.67c0,0,32.34-16,22.67-55.66,0,0-2.33-21.34-16-33.67,0,0-31,7.33-52-12C7203.5,7077.5,7255.5,7072.83,7266.5,7058.17Z" transform="translate(-7033.06 -7044.62)"/><path class="cls-1" d="M7349.83,7329.5" transform="translate(-7033.06 -7044.62)"/><path class="cls-1" d="M7169.61,7288.28l28.5-3.78s-1.5,28-35.17,51.67l11.67,37.66s8.83,4.34,5.92,6.67-24.25,4.67-23.59,2,1.31-10.67,0-12-20.87-43.33-20.87-43.33S7161.39,7315.61,7169.61,7288.28Z" transform="translate(-7033.06 -7044.62)"/><path class="cls-1" d="M7283.17,7262.17l-8.34,3.66s-19.66,98-24.66,106-2.34,9.34-2.34,9.34,20.34,2.66,20-2a40,40,0,0,0-2.69-10.34s44.54-94.66,41.21-102.33c0,0-14.16-1.65-15.85-2.22Z" transform="translate(-7033.06 -7044.62)"/></svg>